# Blender 4.0.1
# www.blender.org
mtllib weapon-wheel-slice_OBJ.mtl
o Cylinder.001
v 0.041066 -0.007500 0.128628
v 0.021257 -0.007500 0.134911
v 0.000000 -0.007500 0.137054
v -0.021257 -0.007500 0.134911
v -0.041066 -0.007500 0.128628
v 0.200000 -0.007500 0.402626
v 0.103528 -0.007500 0.442586
v 0.000000 -0.007500 0.456215
v -0.103528 -0.007500 0.442586
v -0.200000 -0.007500 0.402626
v 0.041066 -0.067500 0.128628
v 0.021257 -0.067500 0.134911
v 0.000000 -0.067500 0.137054
v -0.021257 -0.067500 0.134911
v -0.041066 -0.067500 0.128628
v 0.200000 -0.067500 0.402626
v 0.103528 -0.067500 0.442586
v 0.000000 -0.067500 0.456215
v -0.103528 -0.067500 0.442586
v -0.200000 -0.067500 0.402626
vn -0.0000 1.0000 -0.0000
vn -0.0000 -1.0000 -0.0000
vn 0.3827 -0.0000 0.9239
vn 0.1305 -0.0000 0.9914
vn -0.1305 -0.0000 0.9914
vn -0.3827 -0.0000 0.9239
vn -0.3023 -0.0000 -0.9532
vn -0.1003 -0.0000 -0.9950
vn 0.1003 -0.0000 -0.9950
vn 0.3023 -0.0000 -0.9532
vn 0.8650 -0.0000 -0.5018
vn -0.8650 -0.0000 -0.5018
vt 0.589513 0.442794
vt 0.559901 0.446693
vt 0.445297 0.018986
vt 0.589513 0.000000
vt 0.532307 0.458122
vt 0.310910 0.074651
vt 0.508612 0.476305
vt 0.195509 0.163202
vt 0.490429 0.500000
vt 0.106958 0.278603
vt 0.467052 1.000000
vt 0.083581 0.778603
vt 0.172131 0.663202
vt 0.485234 0.976305
vt 0.287532 0.574651
vt 0.508929 0.958123
vt 0.421920 0.518986
vt 0.536523 0.946693
vt 0.566135 0.500000
vt 0.566135 0.942794
vt 0.000000 0.557206
vt 0.000000 0.422818
vt 0.083581 0.422818
vt 0.083581 0.557206
vt 0.000000 0.278603
vt 0.083581 0.278603
vt 0.000000 0.134387
vt 0.083581 0.134387
vt -0.000000 0.000000
vt 0.083581 -0.000000
vt 0.665860 0.486251
vt 0.684673 0.486251
vt 0.684673 0.569832
vt 0.665860 0.569832
vt 0.647678 0.486251
vt 0.647678 0.569832
vt 0.627055 0.486251
vt 0.627055 0.569832
vt 0.608730 0.486251
vt 0.608730 0.569832
vt 0.589513 0.442794
vt 0.589513 -0.000000
vt 0.673094 -0.000000
vt 0.673094 0.442794
vt 0.673093 0.442794
vt 0.673093 -0.000000
vt 0.756674 -0.000000
vt 0.756674 0.442794
s 0
f 1/1/1 2/2/1 7/3/1 6/4/1
f 2/2/1 3/5/1 8/6/1 7/3/1
f 3/5/1 4/7/1 9/8/1 8/6/1
f 4/7/1 5/9/1 10/10/1 9/8/1
f 11/11/2 16/12/2 17/13/2 12/14/2
f 12/14/2 17/13/2 18/15/2 13/16/2
f 13/16/2 18/15/2 19/17/2 14/18/2
f 14/18/2 19/17/2 20/19/2 15/20/2
f 6/21/3 7/22/3 17/23/3 16/24/3
f 7/22/4 8/25/4 18/26/4 17/23/4
f 8/25/5 9/27/5 19/28/5 18/26/5
f 9/27/6 10/29/6 20/30/6 19/28/6
f 2/31/7 1/32/7 11/33/7 12/34/7
f 3/35/8 2/31/8 12/34/8 13/36/8
f 4/37/9 3/35/9 13/36/9 14/38/9
f 5/39/10 4/37/10 14/38/10 15/40/10
f 1/41/11 6/42/11 16/43/11 11/44/11
f 10/45/12 5/46/12 15/47/12 20/48/12
